<?xml version="1.0" encoding="UTF-8" standalone="no"?><svg xmlns="http://www.w3.org/2000/svg" xmlns:xlink="http://www.w3.org/1999/xlink" height="468" version="1.1" width="459.27880859375"><defs/><g><g transform="translate(-69,-22) scale(1,1)"><rect fill="#C0C0C0" height="151" opacity="0.2" stroke="none" width="305.67529296875" x="151" y="39"/></g><g transform="translate(-69,-22) scale(1,1)"><rect fill="#ffffff" height="151" stroke="none" width="305.67529296875" x="144" y="32"/></g><g transform="translate(-69,-22) scale(1,1)"><path d="M 144 32 L 449.67529296875 32 L 449.67529296875 183 L 144 183 L 144 32 Z Z" fill="none" stroke="#000000" stroke-miterlimit="10"/></g><g transform="translate(-69,-22) scale(1,1)"><path d="M 144 55 L 449.67529296875 55" fill="none" stroke="#000000" stroke-miterlimit="10"/></g><g transform="translate(-69,-22) scale(1,1)"><path d="M 172.05908203125 55 L 172.05908203125 183" fill="none" stroke="#000000" stroke-miterlimit="10"/></g><g transform="translate(-69,-22) scale(1,1)"><path d="M 343.88623046875 55 L 343.88623046875 183" fill="none" stroke="#000000" stroke-miterlimit="10"/></g><g transform="translate(-69,-22) scale(1,1)"><g><path fill="none" stroke="none"/><text fill="#000000" font-family="Arial" font-size="13px" font-style="normal" font-weight="bold" stroke="none" text-decoration="none" x="266.4990234375" y="48">Customer</text></g></g><g transform="translate(-69,-22) scale(1,1)"><g><path fill="none" stroke="none"/><text fill="#000000" font-family="Arial" font-size="13px" font-style="normal" font-weight="normal" stroke="none" text-decoration="none" x="149" y="70">PK</text></g></g><g transform="translate(-69,-22) scale(1,1)"><g><path fill="none" stroke="none"/><text fill="#000000" font-family="Arial" font-size="13px" font-style="normal" font-weight="normal" stroke="none" text-decoration="none" x="177.05908203125" y="70">id</text></g></g><g transform="translate(-69,-22) scale(1,1)"><g><path fill="none" stroke="none"/><text fill="#000000" font-family="Arial" font-size="13px" font-style="normal" font-weight="normal" stroke="none" text-decoration="none" x="348.88623046875" y="70">INT</text></g></g><g transform="translate(-69,-22) scale(1,1)"><g><path fill="none" stroke="none"/><text fill="#000000" font-family="Arial" font-size="13px" font-style="normal" font-weight="normal" stroke="none" text-decoration="none" x="149" y="66"/></g></g><g transform="translate(-69,-22) scale(1,1)"><g><path fill="none" stroke="none"/><text fill="#000000" font-family="Arial" font-size="13px" font-style="normal" font-weight="normal" stroke="none" text-decoration="none" x="149" y="75"/></g></g><g transform="translate(-69,-22) scale(1,1)"><g><path fill="none" stroke="none"/><text fill="#000000" font-family="Arial" font-size="13px" font-style="normal" font-weight="normal" stroke="none" text-decoration="none" x="177.05908203125" y="85">first_name</text></g></g><g transform="translate(-69,-22) scale(1,1)"><g><path fill="none" stroke="none"/><text fill="#000000" font-family="Arial" font-size="13px" font-style="normal" font-weight="normal" stroke="none" text-decoration="none" x="348.88623046875" y="85">VARCHAR(100)</text></g></g><g transform="translate(-69,-22) scale(1,1)"><g><path fill="none" stroke="none"/><text fill="#000000" font-family="Arial" font-size="13px" font-style="normal" font-weight="normal" stroke="none" text-decoration="none" x="149" y="81"/></g></g><g transform="translate(-69,-22) scale(1,1)"><g><path fill="none" stroke="none"/><text fill="#000000" font-family="Arial" font-size="13px" font-style="normal" font-weight="normal" stroke="none" text-decoration="none" x="149" y="90"/></g></g><g transform="translate(-69,-22) scale(1,1)"><g><path fill="none" stroke="none"/><text fill="#000000" font-family="Arial" font-size="13px" font-style="normal" font-weight="normal" stroke="none" text-decoration="none" x="177.05908203125" y="100">middle_name</text></g></g><g transform="translate(-69,-22) scale(1,1)"><g><path fill="none" stroke="none"/><text fill="#000000" font-family="Arial" font-size="13px" font-style="normal" font-weight="normal" stroke="none" text-decoration="none" x="348.88623046875" y="100">VARCHAR(100)</text></g></g><g transform="translate(-69,-22) scale(1,1)"><g><path fill="none" stroke="none"/><text fill="#000000" font-family="Arial" font-size="13px" font-style="normal" font-weight="normal" stroke="none" text-decoration="none" x="149" y="96"/></g></g><g transform="translate(-69,-22) scale(1,1)"><g><path fill="none" stroke="none"/><text fill="#000000" font-family="Arial" font-size="13px" font-style="normal" font-weight="normal" stroke="none" text-decoration="none" x="149" y="105"/></g></g><g transform="translate(-69,-22) scale(1,1)"><g><path fill="none" stroke="none"/><text fill="#000000" font-family="Arial" font-size="13px" font-style="normal" font-weight="normal" stroke="none" text-decoration="none" x="177.05908203125" y="115">last_name</text></g></g><g transform="translate(-69,-22) scale(1,1)"><g><path fill="none" stroke="none"/><text fill="#000000" font-family="Arial" font-size="13px" font-style="normal" font-weight="normal" stroke="none" text-decoration="none" x="348.88623046875" y="115">VARCHAR(100)</text></g></g><g transform="translate(-69,-22) scale(1,1)"><g><path fill="none" stroke="none"/><text fill="#000000" font-family="Arial" font-size="13px" font-style="normal" font-weight="normal" stroke="none" text-decoration="none" x="149" y="111"/></g></g><g transform="translate(-69,-22) scale(1,1)"><g><path fill="none" stroke="none"/><text fill="#000000" font-family="Arial" font-size="13px" font-style="normal" font-weight="normal" stroke="none" text-decoration="none" x="149" y="120"/></g></g><g transform="translate(-69,-22) scale(1,1)"><g><path fill="none" stroke="none"/><text fill="#000000" font-family="Arial" font-size="13px" font-style="normal" font-weight="normal" stroke="none" text-decoration="none" x="177.05908203125" y="130">bank_verification_number</text></g></g><g transform="translate(-69,-22) scale(1,1)"><g><path fill="none" stroke="none"/><text fill="#000000" font-family="Arial" font-size="13px" font-style="normal" font-weight="normal" stroke="none" text-decoration="none" x="348.88623046875" y="130">CHAR(11)</text></g></g><g transform="translate(-69,-22) scale(1,1)"><g><path fill="none" stroke="none"/><text fill="#000000" font-family="Arial" font-size="13px" font-style="normal" font-weight="normal" stroke="none" text-decoration="none" x="149" y="126"/></g></g><g transform="translate(-69,-22) scale(1,1)"><g><path fill="none" stroke="none"/><text fill="#000000" font-family="Arial" font-size="13px" font-style="normal" font-weight="normal" stroke="none" text-decoration="none" x="149" y="135"/></g></g><g transform="translate(-69,-22) scale(1,1)"><g><path fill="none" stroke="none"/><text fill="#000000" font-family="Arial" font-size="13px" font-style="normal" font-weight="normal" stroke="none" text-decoration="none" x="177.05908203125" y="145">account_number</text></g></g><g transform="translate(-69,-22) scale(1,1)"><g><path fill="none" stroke="none"/><text fill="#000000" font-family="Arial" font-size="13px" font-style="normal" font-weight="normal" stroke="none" text-decoration="none" x="348.88623046875" y="145">CHAR(10)</text></g></g><g transform="translate(-69,-22) scale(1,1)"><g><path fill="none" stroke="none"/><text fill="#000000" font-family="Arial" font-size="13px" font-style="normal" font-weight="normal" stroke="none" text-decoration="none" x="149" y="141"/></g></g><g transform="translate(-69,-22) scale(1,1)"><g><path fill="none" stroke="none"/><text fill="#000000" font-family="Arial" font-size="13px" font-style="normal" font-weight="normal" stroke="none" text-decoration="none" x="149" y="150"/></g></g><g transform="translate(-69,-22) scale(1,1)"><g><path fill="none" stroke="none"/><text fill="#000000" font-family="Arial" font-size="13px" font-style="normal" font-weight="normal" stroke="none" text-decoration="none" x="177.05908203125" y="160">pin</text></g></g><g transform="translate(-69,-22) scale(1,1)"><g><path fill="none" stroke="none"/><text fill="#000000" font-family="Arial" font-size="13px" font-style="normal" font-weight="normal" stroke="none" text-decoration="none" x="348.88623046875" y="160">CHAR(4)</text></g></g><g transform="translate(-69,-22) scale(1,1)"><g><path fill="none" stroke="none"/><text fill="#000000" font-family="Arial" font-size="13px" font-style="normal" font-weight="normal" stroke="none" text-decoration="none" x="149" y="156"/></g></g><g transform="translate(-69,-22) scale(1,1)"><g><path fill="none" stroke="none"/><text fill="#000000" font-family="Arial" font-size="13px" font-style="normal" font-weight="normal" stroke="none" text-decoration="none" x="149" y="165"/></g></g><g transform="translate(-69,-22) scale(1,1)"><g><path fill="none" stroke="none"/><text fill="#000000" font-family="Arial" font-size="13px" font-style="normal" font-weight="normal" stroke="none" text-decoration="none" x="177.05908203125" y="175">account_balance</text></g></g><g transform="translate(-69,-22) scale(1,1)"><g><path fill="none" stroke="none"/><text fill="#000000" font-family="Arial" font-size="13px" font-style="normal" font-weight="normal" stroke="none" text-decoration="none" x="348.88623046875" y="175">DECIMAL(12, 2)</text></g></g><g transform="translate(-69,-22) scale(1,1)"><g><path fill="none" stroke="none"/><text fill="#000000" font-family="Arial" font-size="13px" font-style="normal" font-weight="normal" stroke="none" text-decoration="none" x="149" y="171"/></g></g><g transform="translate(-69,-22) scale(1,1)"><rect fill="#C0C0C0" height="120" opacity="0.2" stroke="none" width="382.27880859375" x="143" y="367"/></g><g transform="translate(-69,-22) scale(1,1)"><rect fill="#ffffff" height="120" stroke="none" width="382.27880859375" x="136" y="360"/></g><g transform="translate(-69,-22) scale(1,1)"><path d="M 136 360 L 518.27880859375 360 L 518.27880859375 480 L 136 480 L 136 360 Z Z" fill="none" stroke="#000000" stroke-miterlimit="10"/></g><g transform="translate(-69,-22) scale(1,1)"><path d="M 136 383 L 518.27880859375 383" fill="none" stroke="#000000" stroke-miterlimit="10"/></g><g transform="translate(-69,-22) scale(1,1)"><path d="M 164.05908203125 383 L 164.05908203125 480" fill="none" stroke="#000000" stroke-miterlimit="10"/></g><g transform="translate(-69,-22) scale(1,1)"><path d="M 242.7216796875 383 L 242.7216796875 480" fill="none" stroke="#000000" stroke-miterlimit="10"/></g><g transform="translate(-69,-22) scale(1,1)"><g><path fill="none" stroke="none"/><text fill="#000000" font-family="Arial" font-size="13px" font-style="normal" font-weight="bold" stroke="none" text-decoration="none" x="290.65625" y="376">Transaction</text></g></g><g transform="translate(-69,-22) scale(1,1)"><g><path fill="none" stroke="none"/><text fill="#000000" font-family="Arial" font-size="13px" font-style="normal" font-weight="normal" stroke="none" text-decoration="none" x="141" y="398">PK</text></g></g><g transform="translate(-69,-22) scale(1,1)"><g><path fill="none" stroke="none"/><text fill="#000000" font-family="Arial" font-size="13px" font-style="normal" font-weight="normal" stroke="none" text-decoration="none" x="169.05908203125" y="398">id</text></g></g><g transform="translate(-69,-22) scale(1,1)"><g><path fill="none" stroke="none"/><text fill="#000000" font-family="Arial" font-size="13px" font-style="normal" font-weight="normal" stroke="none" text-decoration="none" x="247.7216796875" y="398">INT</text></g></g><g transform="translate(-69,-22) scale(1,1)"><g><path fill="none" stroke="none"/><text fill="#000000" font-family="Arial" font-size="13px" font-style="normal" font-weight="normal" stroke="none" text-decoration="none" x="141" y="394"/></g></g><g transform="translate(-69,-22) scale(1,1)"><g><path fill="none" stroke="none"/><text fill="#000000" font-family="Arial" font-size="13px" font-style="normal" font-weight="normal" stroke="none" text-decoration="none" x="141" y="413">FK</text></g></g><g transform="translate(-69,-22) scale(1,1)"><g><path fill="none" stroke="none"/><text fill="#000000" font-family="Arial" font-size="13px" font-style="normal" font-weight="normal" stroke="none" text-decoration="none" x="169.05908203125" y="413">sender_id</text></g></g><g transform="translate(-69,-22) scale(1,1)"><g><path fill="none" stroke="none"/><text fill="#000000" font-family="Arial" font-size="13px" font-style="normal" font-weight="normal" stroke="none" text-decoration="none" x="247.7216796875" y="413">INT</text></g></g><g transform="translate(-69,-22) scale(1,1)"><g><path fill="none" stroke="none"/><text fill="#000000" font-family="Arial" font-size="13px" font-style="normal" font-weight="normal" stroke="none" text-decoration="none" x="141" y="409"/></g></g><g transform="translate(-69,-22) scale(1,1)"><g><path fill="none" stroke="none"/><text fill="#000000" font-family="Arial" font-size="13px" font-style="normal" font-weight="normal" stroke="none" text-decoration="none" x="141" y="428">FK</text></g></g><g transform="translate(-69,-22) scale(1,1)"><g><path fill="none" stroke="none"/><text fill="#000000" font-family="Arial" font-size="13px" font-style="normal" font-weight="normal" stroke="none" text-decoration="none" x="169.05908203125" y="428">receiver_id</text></g></g><g transform="translate(-69,-22) scale(1,1)"><g><path fill="none" stroke="none"/><text fill="#000000" font-family="Arial" font-size="13px" font-style="normal" font-weight="normal" stroke="none" text-decoration="none" x="247.7216796875" y="428">INT</text></g></g><g transform="translate(-69,-22) scale(1,1)"><g><path fill="none" stroke="none"/><text fill="#000000" font-family="Arial" font-size="13px" font-style="normal" font-weight="normal" stroke="none" text-decoration="none" x="141" y="424"/></g></g><g transform="translate(-69,-22) scale(1,1)"><g><path fill="none" stroke="none"/><text fill="#000000" font-family="Arial" font-size="13px" font-style="normal" font-weight="normal" stroke="none" text-decoration="none" x="141" y="433"/></g></g><g transform="translate(-69,-22) scale(1,1)"><g><path fill="none" stroke="none"/><text fill="#000000" font-family="Arial" font-size="13px" font-style="normal" font-weight="normal" stroke="none" text-decoration="none" x="169.05908203125" y="442">amount</text></g></g><g transform="translate(-69,-22) scale(1,1)"><g><path fill="none" stroke="none"/><text fill="#000000" font-family="Arial" font-size="13px" font-style="normal" font-weight="normal" stroke="none" text-decoration="none" x="247.7216796875" y="443">DECIMAL(12, 2)</text></g></g><g transform="translate(-69,-22) scale(1,1)"><g><path fill="none" stroke="none"/><text fill="#000000" font-family="Arial" font-size="13px" font-style="normal" font-weight="normal" stroke="none" text-decoration="none" x="141" y="439"/></g></g><g transform="translate(-69,-22) scale(1,1)"><g><path fill="none" stroke="none"/><text fill="#000000" font-family="Arial" font-size="13px" font-style="normal" font-weight="normal" stroke="none" text-decoration="none" x="141" y="448"/></g></g><g transform="translate(-69,-22) scale(1,1)"><g><path fill="none" stroke="none"/><text fill="#000000" font-family="Arial" font-size="13px" font-style="normal" font-weight="normal" stroke="none" text-decoration="none" x="169.05908203125" y="457">type</text></g></g><g transform="translate(-69,-22) scale(1,1)"><g><path fill="none" stroke="none"/><text fill="#000000" font-family="Arial" font-size="13px" font-style="normal" font-weight="normal" stroke="none" text-decoration="none" x="247.7216796875" y="458">ENUM("Deposit", "Withdrawal", "Transfer")</text></g></g><g transform="translate(-69,-22) scale(1,1)"><g><path fill="none" stroke="none"/><text fill="#000000" font-family="Arial" font-size="13px" font-style="normal" font-weight="normal" stroke="none" text-decoration="none" x="141" y="454"/></g></g><g transform="translate(-69,-22) scale(1,1)"><g><path fill="none" stroke="none"/><text fill="#000000" font-family="Arial" font-size="13px" font-style="normal" font-weight="normal" stroke="none" text-decoration="none" x="141" y="463"/></g></g><g transform="translate(-69,-22) scale(1,1)"><g><path fill="none" stroke="none"/><text fill="#000000" font-family="Arial" font-size="13px" font-style="normal" font-weight="normal" stroke="none" text-decoration="none" x="169.05908203125" y="473">time</text></g></g><g transform="translate(-69,-22) scale(1,1)"><g><path fill="none" stroke="none"/><text fill="#000000" font-family="Arial" font-size="13px" font-style="normal" font-weight="normal" stroke="none" text-decoration="none" x="247.7216796875" y="473">DATETIME</text></g></g><g transform="translate(-69,-22) scale(1,1)"><g><path fill="none" stroke="none"/><text fill="#000000" font-family="Arial" font-size="13px" font-style="normal" font-weight="normal" stroke="none" text-decoration="none" x="141" y="469"/></g></g><g transform="translate(-69,-22) scale(1,1)"><path d="M 224 360 L 224 183" fill="none" stroke="#000000" stroke-miterlimit="10"/></g><g transform="translate(-69,-22) scale(1,1)"><path d="M 224 197 L 231 183" fill="none" stroke="#000000" stroke-miterlimit="10"/></g><g transform="translate(-69,-22) scale(1,1)"><path d="M 224 197 L 217 183" fill="none" stroke="#000000" stroke-miterlimit="10"/></g><g transform="translate(-69,-22) scale(1,1)"><path d="M 231 197 L 217 197" fill="none" stroke="#000000" stroke-miterlimit="10"/></g><g transform="translate(-69,-22) scale(1,1)"><path d="M 224 346 L 217 360" fill="none" stroke="#000000" stroke-miterlimit="10"/></g><g transform="translate(-69,-22) scale(1,1)"><path d="M 224 346 L 231 360" fill="none" stroke="#000000" stroke-miterlimit="10"/></g><g transform="translate(-69,-22) scale(1,1)"><path d="M 217 346 L 231 346" fill="none" stroke="#000000" stroke-miterlimit="10"/></g><g transform="translate(-69,-22) scale(1,1)"><g><path fill="none" stroke="none"/><text fill="#000000" font-family="Arial" font-size="13px" font-style="normal" font-weight="normal" stroke="none" text-decoration="none" x="78.5" y="282">sender_id: customer(id)</text></g></g><g transform="translate(-69,-22) scale(1,1)"><g><path fill="none" stroke="none"/><text fill="#000000" font-family="Arial" font-size="13px" font-style="normal" font-weight="normal" stroke="none" text-decoration="none" x="208.5" y="208"/></g></g><g transform="translate(-69,-22) scale(1,1)"><path d="M 304 360 L 304 183" fill="none" stroke="#000000" stroke-miterlimit="10"/></g><g transform="translate(-69,-22) scale(1,1)"><path d="M 304 197 L 311 183" fill="none" stroke="#000000" stroke-miterlimit="10"/></g><g transform="translate(-69,-22) scale(1,1)"><path d="M 304 197 L 297 183" fill="none" stroke="#000000" stroke-miterlimit="10"/></g><g transform="translate(-69,-22) scale(1,1)"><path d="M 311 197 L 297 197" fill="none" stroke="#000000" stroke-miterlimit="10"/></g><g transform="translate(-69,-22) scale(1,1)"><path d="M 304 346 L 297 360" fill="none" stroke="#000000" stroke-miterlimit="10"/></g><g transform="translate(-69,-22) scale(1,1)"><path d="M 304 346 L 311 360" fill="none" stroke="#000000" stroke-miterlimit="10"/></g><g transform="translate(-69,-22) scale(1,1)"><path d="M 297 346 L 311 346" fill="none" stroke="#000000" stroke-miterlimit="10"/></g><g transform="translate(-69,-22) scale(1,1)"><g><path fill="none" stroke="none"/><text fill="#000000" font-family="Arial" font-size="13px" font-style="normal" font-weight="normal" stroke="none" text-decoration="none" x="311.5" y="275">receiver_id: customer(id)</text></g></g><g transform="translate(-69,-22) scale(1,1)"><g><path fill="none" stroke="none"/><text fill="#000000" font-family="Arial" font-size="13px" font-style="normal" font-weight="normal" stroke="none" text-decoration="none" x="288.5" y="208"/></g></g></g></svg>